<svg xmlns="http://www.w3.org/2000/svg" width="20" height="20" viewBox="0 0 20 20"><defs><style>.a{fill:#fff;}</style></defs><path class="a" d="M10,0A10,10,0,1,0,20,10,10.029,10.029,0,0,0,10,0Zm0,2.5A7.5,7.5,0,1,1,2.5,10,7.49,7.49,0,0,1,10,2.5ZM10,5a1.25,1.25,0,1,0,1.25,1.25A1.238,1.238,0,0,0,10,5ZM5.85,7.5a1.25,1.25,0,0,0-.475,2.1L7.65,11.875a2.539,2.539,0,0,0-.15.625A2.5,2.5,0,1,0,10,10a2.539,2.539,0,0,0-.625.15L7.1,7.875a1.25,1.25,0,0,0-1.1-.4,1.25,1.25,0,0,0-.15,0Zm7.9,0A1.25,1.25,0,1,0,15,8.75,1.238,1.238,0,0,0,13.75,7.5Z"/></svg>