<svg xmlns="http://www.w3.org/2000/svg" width="20" height="20" viewBox="0 0 20 20"><defs><style>.a{fill:#fff;}</style></defs><path class="a" d="M20.97,14.375a6.254,6.254,0,0,0,.051-1c0-.35-.051-.65-.051-1l2.147-1.65a.459.459,0,0,0,.1-.65l-2.046-3.45a.5.5,0,0,0-.614-.2L18,7.425a7.443,7.443,0,0,0-1.738-1l-.358-2.65a.548.548,0,0,0-.511-.4H11.3a.548.548,0,0,0-.511.4l-.409,2.65a8.66,8.66,0,0,0-1.739,1l-2.557-1a.479.479,0,0,0-.614.2l-2.046,3.45a.6.6,0,0,0,.1.65l2.2,1.65c0,.35-.051.65-.051,1s.051.65.051,1l-2.148,1.65a.459.459,0,0,0-.1.65l2.046,3.45a.5.5,0,0,0,.614.2l2.557-1a7.442,7.442,0,0,0,1.738,1l.409,2.65a.5.5,0,0,0,.511.4h4.091a.548.548,0,0,0,.511-.4l.41-2.65a8.655,8.655,0,0,0,1.738-1l2.557,1a.479.479,0,0,0,.614-.2l2.046-3.45a.6.6,0,0,0-.1-.65Zm-7.62,2.5a3.5,3.5,0,1,1,3.58-3.5A3.519,3.519,0,0,1,13.349,16.875Z" transform="translate(-3.375 -3.375)"/></svg>