<svg xmlns="http://www.w3.org/2000/svg" width="18.516" height="20" viewBox="0 0 18.516 20"><defs><style>.a{fill:#fff;}</style></defs><g transform="translate(-1662.22 -3180.003)"><path class="a" d="M1678.135,3184.31a9.2,9.2,0,0,0-5.336-2.73l.578-.578a.586.586,0,0,0-.829-.829l-1.484,1.484a.586.586,0,0,0,0,.829l1.484,1.484a.586.586,0,0,0,.829-.829l-.332-.332a8.081,8.081,0,1,1-4.286.317.586.586,0,1,0-.394-1.1,9.261,9.261,0,1,0,9.77,2.287h0Z" transform="translate(0 0)"/><path class="a" d="M2525.67,4445.14a6.02,6.02,0,1,0,6.02-6.02A6.027,6.027,0,0,0,2525.67,4445.14Zm6.107,1.33a.412.412,0,0,1,.075.224.3.3,0,0,1-.116.243.41.41,0,0,1-.272.1.405.405,0,0,1-.191-.048.416.416,0,0,1-.153-.144l-.832-1.293a.816.816,0,0,0-.266-.288.71.71,0,0,0-.366-.083h-.613v1.434a.424.424,0,0,1-.106.3.379.379,0,0,1-.288.112.389.389,0,0,1-.291-.112.417.417,0,0,1-.109-.3v-3.745a.356.356,0,0,1,.387-.39h1.563a1.684,1.684,0,0,1,1.141.342,1.245,1.245,0,0,1,.391.989,1.269,1.269,0,0,1-.291.861,1.366,1.366,0,0,1-.822.432.778.778,0,0,1,.319.16,1.4,1.4,0,0,1,.269.32l.569.89Zm-1.688-1.926a1.042,1.042,0,0,0,.669-.176.663.663,0,0,0,.213-.541.652.652,0,0,0-.213-.541,1.072,1.072,0,0,0-.669-.169h-1.05v1.427h1.05Zm4.195-.762a1.245,1.245,0,0,1,.7.205,1.349,1.349,0,0,1,.481.579,2.044,2.044,0,0,1,.172.861,1.979,1.979,0,0,1-.172.852,1.324,1.324,0,0,1-.478.563,1.27,1.27,0,0,1-.707.2,1.189,1.189,0,0,1-.581-.141.977.977,0,0,1-.394-.391v1.306a.336.336,0,0,1-.106.263.4.4,0,0,1-.281.1.4.4,0,0,1-.284-.1.351.351,0,0,1-.109-.269v-3.629a.369.369,0,0,1,.1-.275.377.377,0,0,1,.278-.1.388.388,0,0,1,.281.1.363.363,0,0,1,.106.275v.16a.969.969,0,0,1,.4-.407,1.2,1.2,0,0,1,.591-.144Zm-.206,2.637a.7.7,0,0,0,.575-.259,1.153,1.153,0,0,0,.206-.733,1.217,1.217,0,0,0-.206-.755.759.759,0,0,0-1.154-.006,1.471,1.471,0,0,0,0,1.492A.688.688,0,0,0,2534.077,4446.418Z" transform="translate(-860.212 -1254.395)"/></g></svg>