<svg xmlns="http://www.w3.org/2000/svg" width="22.522" height="20" viewBox="0 0 22.522 20"><defs><style>.a{fill:#fff;}</style></defs><path class="a" d="M1.413,12l-.168-.826H0l2.387-3.58,2.387,3.58H3.513L4,12.55a7.714,7.714,0,0,0,8.741,4.961l.036-.007.018,0h0a7.8,7.8,0,0,0,4.583-2.858h0l.066.1a3.234,3.234,0,0,0,1.815,1.322,9.651,9.651,0,0,1-.667.793A10.078,10.078,0,0,1,1.413,12ZM12.3,15a1.118,1.118,0,0,1-.224-.047.264.264,0,0,1-.119-.074.155.155,0,0,1-.035-.1V7.957a.164.164,0,0,1,.029-.1.213.213,0,0,1,.1-.068.789.789,0,0,1,.192-.041,2.737,2.737,0,0,1,.3-.014,2.652,2.652,0,0,1,.293.014.769.769,0,0,1,.192.041.2.2,0,0,1,.1.068.158.158,0,0,1,.029.1v.575a5.326,5.326,0,0,1,.445-.386,2.659,2.659,0,0,1,.445-.279,2.1,2.1,0,0,1,.467-.167,2.343,2.343,0,0,1,.514-.055A2.048,2.048,0,0,1,16,7.856a1.8,1.8,0,0,1,.653.577,2.524,2.524,0,0,1,.369.854,4.478,4.478,0,0,1,.116,1.04,4.3,4.3,0,0,1-.149,1.174,2.585,2.585,0,0,1-.432.889,1.894,1.894,0,0,1-.708.564,2.278,2.278,0,0,1-.97.2,1.976,1.976,0,0,1-.415-.041,1.649,1.649,0,0,1-.366-.126,2.323,2.323,0,0,1-.351-.211,4.213,4.213,0,0,1-.36-.3v2.3a.155.155,0,0,1-.035.1.259.259,0,0,1-.119.074,1.107,1.107,0,0,1-.223.047,3.879,3.879,0,0,1-.708,0Zm2.011-6.134a1.124,1.124,0,0,0-.29.134,2.015,2.015,0,0,0-.305.24,3.587,3.587,0,0,0-.331.367v1.609a3.3,3.3,0,0,0,.587.567.981.981,0,0,0,.581.2.843.843,0,0,0,.485-.137,1.077,1.077,0,0,0,.328-.359,1.719,1.719,0,0,0,.189-.5,2.623,2.623,0,0,0,.06-.559,3.593,3.593,0,0,0-.049-.6,1.716,1.716,0,0,0-.168-.511,1,1,0,0,0-.314-.359.835.835,0,0,0-.485-.134A1.012,1.012,0,0,0,14.309,8.863Zm-4.065,4.185a.929.929,0,0,1-.229-.041A.253.253,0,0,1,9.9,12.93a.407.407,0,0,1-.058-.112l-.674-1.582q-.122-.269-.238-.476a1.53,1.53,0,0,0-.258-.348.96.96,0,0,0-.328-.211,1.189,1.189,0,0,0-.429-.071H7.434v2.7a.146.146,0,0,1-.038.1A.261.261,0,0,1,7.271,13a1.2,1.2,0,0,1-.232.044,4.241,4.241,0,0,1-.741,0A1.233,1.233,0,0,1,6.063,13a.239.239,0,0,1-.122-.071.153.153,0,0,1-.035-.1V6.4a.424.424,0,0,1,.13-.348.493.493,0,0,1,.322-.106H8.3c.2,0,.36,0,.488.011s.244.016.348.027a3.354,3.354,0,0,1,.816.208,1.981,1.981,0,0,1,.616.386,1.6,1.6,0,0,1,.386.564,1.954,1.954,0,0,1,.133.747,2.077,2.077,0,0,1-.1.649,1.631,1.631,0,0,1-.282.523,1.836,1.836,0,0,1-.459.4,2.539,2.539,0,0,1-.621.274,1.734,1.734,0,0,1,.316.186,1.606,1.606,0,0,1,.279.266,2.492,2.492,0,0,1,.247.356,4.486,4.486,0,0,1,.227.452l.633,1.4c.058.139.1.24.116.3a.534.534,0,0,1,.029.15.207.207,0,0,1-.023.1.193.193,0,0,1-.111.068,1.165,1.165,0,0,1-.256.038c-.113.007-.265.011-.458.011C10.471,13.059,10.341,13.055,10.244,13.048Zm-2.81-4h.778a1.987,1.987,0,0,0,.569-.074,1.149,1.149,0,0,0,.407-.209.848.848,0,0,0,.244-.319,1.034,1.034,0,0,0,.081-.417,1.007,1.007,0,0,0-.168-.591A.92.92,0,0,0,8.792,7.1a2.241,2.241,0,0,0-.264-.043,3.7,3.7,0,0,0-.41-.017H7.434Zm10.314-.226h1.265l-.491-1.378a7.647,7.647,0,0,0-2.379-3.37A7.738,7.738,0,0,0,5.151,5.366l-.069-.1a3.1,3.1,0,0,0-1.818-1.27A9.954,9.954,0,0,1,9.916.091,10.088,10.088,0,0,1,21.11,8l.167.826h1.245l-2.386,3.581Z" transform="translate(0 0)"/></svg>