<svg xmlns="http://www.w3.org/2000/svg" width="24" height="11.877" viewBox="0 0 24 11.877"><defs><style>.a{fill:#fff;}</style></defs><g transform="translate(0.001 -0.005)"><path class="a" d="M12.129,11.871H0V0H24L12.129,11.871h0ZM1.065,7.538.336,8.987A5.416,5.416,0,0,0,3.01,9.7h.123a3.262,3.262,0,0,0,2.033-.683l.087-.076-.236.635H7.161l.36-1.1a3.989,3.989,0,0,0,1.261.2,3.941,3.941,0,0,0,1.232-.189l.346,1.085h3.5V7.306h.764c1.839,0,2.937-.94,2.937-2.514,0-1.745-1.055-2.558-3.319-2.558v0H11.881V7.849L9.817,2.231H7.772l-1.763,4.7c-.19-1.206-1.454-1.606-2.377-1.9-.6-.193-1.312-.495-1.306-.838,0-.244.3-.491.933-.491.044,0,.09,0,.137,0a3.852,3.852,0,0,1,1.729.465l.821-1.43a6.376,6.376,0,0,0-2.676-.634H3.264A3.28,3.28,0,0,0,.9,2.97,2,2,0,0,0,.336,4.349,1.857,1.857,0,0,0,1.147,6a5.593,5.593,0,0,0,1.606.735c.613.189,1.192.367,1.186.756a.548.548,0,0,1-.156.367,1.031,1.031,0,0,1-.762.24H2.916a3.258,3.258,0,0,1-1.851-.559Zm7.717-.5h0a2.172,2.172,0,0,1-.757-.134l.749-2.363H8.79l.734,2.37A2.194,2.194,0,0,1,8.783,7.04Zm5.6-1.36h-.52v-1.9h.52c.828,0,1.247.316,1.247.939C15.628,5.355,15.209,5.679,14.381,5.679Z" transform="translate(-0.001 0.005)"/><path class="a" d="M56.141,38.982v.885h.134v-.384h.15l.242.384h.15l-.259-.384a.24.24,0,0,0,.234-.251c0-.175-.107-.251-.317-.251Zm.134.117h.184c.09,0,.192.015.192.125,0,.138-.1.15-.217.15h-.159Zm.167-.443a.773.773,0,1,0,.769.769A.762.762,0,0,0,56.441,38.656Zm0,.125a.643.643,0,1,1-.635.643A.633.633,0,0,1,56.441,38.782Z" transform="translate(-40.779 -28.319)"/></g></svg>