<svg xmlns="http://www.w3.org/2000/svg" width="20.229" height="20" viewBox="0 0 20.229 20"><defs><style>.a{fill:#fff;fill-rule:evenodd;}</style></defs><g transform="translate(-4962.95 -3263.41)"><path class="a" d="M4979.459,3280.007a1.331,1.331,0,1,1,0-2.663h0a1.331,1.331,0,1,1,0,2.663Zm.468-5.532H4966.2a.8.8,0,0,1-.8-.8v-6.128a2.129,2.129,0,0,1,2.123-2.123H4978.6a2.129,2.129,0,0,1,2.123,2.123v6.129a.8.8,0,0,1-.8.8Zm-13.407-10.446h-.722c-1.525,0-1.886,1.22-1.9,2.733h-.466a.483.483,0,0,0-.481.481v3.578a.483.483,0,0,0,.481.481h.465v6.948a4.727,4.727,0,0,0,1.042,2.7v1.542a.923.923,0,0,0,.921.921h1.621a.923.923,0,0,0,.92-.921v-1.326h9.326v1.326a.924.924,0,0,0,.921.921h1.621a.923.923,0,0,0,.921-.921v-1.543a4.729,4.729,0,0,0,1.042-2.7V3271.3h.465a.483.483,0,0,0,.481-.482v-3.578a.483.483,0,0,0-.481-.482h-.466c-.013-1.512-.309-2.733-1.834-2.733h-.789a1.269,1.269,0,0,0-1.086-.618h-10.916A1.269,1.269,0,0,0,4966.521,3264.028Zm1.482,14.647a1.335,1.335,0,0,1-1.331,1.332h0a1.331,1.331,0,1,1,0-2.663h0A1.335,1.335,0,0,1,4968,3278.675Z"/></g></svg>