<svg xmlns="http://www.w3.org/2000/svg" width="17.098" height="20" viewBox="0 0 17.098 20"><defs><style>.a{fill:#fff;fill-rule:evenodd;}</style></defs><g transform="translate(-3262.671 -4830.979)"><path class="a" d="M3278.278,4846.836v-7.164h.642a.312.312,0,0,0,.231-.1.357.357,0,0,0,.091-.238v-.2h.345c.078,0,.182-.153.182-.339V4837c0-.186-.1-.339-.182-.339h-.927c-.078,0-.2.153-.2.339v1.788c0,.186.117.339.2.339h.35v.2a.125.125,0,0,1-.03.082.084.084,0,0,1-.06.028h-.641v-2.191c0-1.067-.874-6.269-1.941-6.269h-.75a6.634,6.634,0,0,1-1.044.074H3267.9a6.64,6.64,0,0,1-1.044-.074h-.75c-1.068,0-1.941,5.2-1.941,6.269v2.191h-.641a.083.083,0,0,1-.06-.028.124.124,0,0,1-.03-.082v-.2h.349c.079,0,.2-.153.2-.339V4837c0-.186-.117-.339-.2-.339h-.927c-.078,0-.182.153-.182.339v1.788c0,.186.1.339.182.339h.346v.2a.359.359,0,0,0,.091.238.312.312,0,0,0,.231.1h.641v7.164a1.935,1.935,0,0,0,.585,1.386v2.531a.227.227,0,0,0,.227.227h1.274a.228.228,0,0,0,.227-.227v-1.976h.418l.166-.161a2.5,2.5,0,0,0,1.033.255h2.412a1.012,1.012,0,0,0,1.434,0h2.412a2.665,2.665,0,0,0,1.026-.257l.155.162h.436v1.976a.227.227,0,0,0,.227.227h1.274a.228.228,0,0,0,.227-.227v-2.531a1.937,1.937,0,0,0,.584-1.386Zm-9.929-1.7h5.741a7.2,7.2,0,0,1,1.089.047,2.279,2.279,0,0,1-1.089.292h-5.741a2.09,2.09,0,0,1-1.089-.292A7.2,7.2,0,0,1,3268.349,4845.134Zm-.43-1.917h6.6a8.685,8.685,0,0,1,1.252.051,2.736,2.736,0,0,1-1.252.317h-6.6a2.511,2.511,0,0,1-1.252-.317A8.692,8.692,0,0,1,3267.919,4843.217Zm.171.947h6.259a6.723,6.723,0,0,1,1.187.06,2.242,2.242,0,0,1-1.187.369h-6.259a2.062,2.062,0,0,1-1.187-.369A6.721,6.721,0,0,1,3268.091,4844.164Zm8.064,1.317c0-1.726.108-1.274,1.8-3.427v3.427a.279.279,0,0,1-.236.307h-1.324A.279.279,0,0,1,3276.155,4845.481Zm-.332-5.4h-9.207c-.96,0-1.763-.538-1.746-.9l.2-4.2c.017-.359.587-.888,1.547-.888h9.207c.96,0,1.481.476,1.5.834l.244,4.254C3277.59,4839.544,3276.783,4840.083,3275.823,4840.083Zm-8.919,6.855a4.324,4.324,0,0,1,1.187-.094h6.259a4.325,4.325,0,0,1,1.187.094,1.786,1.786,0,0,1-1.187.584h-6.259A1.656,1.656,0,0,1,3266.9,4846.938Zm-.619-1.458a.28.28,0,0,1-.236.307h-1.324a.279.279,0,0,1-.236-.307v-3.427C3266.177,4844.207,3266.285,4844.279,3266.285,4845.481Zm8.064-12.167h-6.259a4.135,4.135,0,0,1-1.187-.1v-.334a4.289,4.289,0,0,1,1.187-.095h6.259a4.291,4.291,0,0,1,1.187.095v.334A4.157,4.157,0,0,1,3274.349,4833.314Z" transform="translate(0)"/></g></svg>