<svg xmlns="http://www.w3.org/2000/svg" width="19.999" height="20" viewBox="0 0 19.999 20"><defs><style>.a{fill:#fff;}</style></defs><g transform="translate(-0.008)"><g transform="translate(1.257)"><circle class="a" cx="2.5" cy="2.5" r="2.5"/></g><g transform="translate(0.008 6.25)"><path class="a" d="M7.5,166.813l-.57-5.686A1.246,1.246,0,0,0,5.691,160H5.007a.63.63,0,0,0-.443.182l-.807.808-.807-.808A.63.63,0,0,0,2.507,160H1.824A1.246,1.246,0,0,0,.58,161.125l-.569,5.688a.625.625,0,0,0,.621.688h.684l.512,5.125a1.248,1.248,0,0,0,1.245,1.125H4.442a1.246,1.246,0,0,0,1.244-1.125L6.2,167.5h.684a.625.625,0,0,0,.623-.687Z" transform="translate(-0.008 -160)"/></g><g transform="translate(7.357 2.176)"><path class="a" d="M200.175,61.026H198.6a5.575,5.575,0,0,0-1.018-1.776l.784-1.362a.625.625,0,0,0-.23-.853l-2.175-1.25a.625.625,0,0,0-.854.231l-.779,1.356a5.555,5.555,0,0,0-2.057,0l-.78-1.357a.627.627,0,0,0-.854-.23l-2.175,1.25a.624.624,0,0,0-.231.853l.783,1.362a5.967,5.967,0,0,0-.384.548,2.429,2.429,0,0,1,.34.981l.569,5.686a1.881,1.881,0,0,1-.473,1.441l0,.005a1.87,1.87,0,0,1-.868.53.613.613,0,0,0,.266.326l2.175,1.25a.624.624,0,0,0,.311.082.606.606,0,0,0,.163-.022.621.621,0,0,0,.379-.291l.779-1.356a5.581,5.581,0,0,0,2.057,0l.779,1.356a.626.626,0,0,0,.854.23l2.175-1.25a.627.627,0,0,0,.23-.854l-.784-1.362a5.454,5.454,0,0,0,1.021-1.774h1.574a.625.625,0,0,0,.625-.625v-2.5A.625.625,0,0,0,200.175,61.026ZM193.3,65.4a2.5,2.5,0,1,1,2.5-2.5A2.5,2.5,0,0,1,193.3,65.4Z" transform="translate(-188.15 -55.702)"/></g></g></svg>